# Blender v2.82 (sub 7) OBJ File: 'wallTest.blend'
# www.blender.org
mtllib carContainer.mtl
o Cube_Cube.015
v 3.541724 -0.299868 6.207505
v 3.541724 -0.299868 4.498960
v 3.437267 0.363028 4.498960
v 3.437267 0.363028 6.207505
v 3.931395 1.138876 4.498960
v 3.931395 1.138876 6.207505
v 5.538775 -0.299868 4.498960
v 5.538775 -0.027116 4.498960
v 5.562737 -0.299868 4.498960
v 5.562737 -0.027116 4.498960
v 5.538775 1.144310 4.498960
v 5.562737 -0.008593 4.498960
v 5.562737 1.116124 4.498960
v 5.538775 -0.299868 6.207505
v 5.538775 -0.027116 6.207505
v 5.538775 1.144310 6.207505
v 5.562737 1.116124 6.207505
v 4.098062 -0.292929 4.581781
v 4.324809 -0.214936 4.581781
v 4.339361 -0.292929 4.581781
v 4.324809 -0.214935 4.445181
v 4.339361 -0.292929 4.445181
v 4.098062 -0.292929 4.445181
v 4.282908 -0.146349 4.581781
v 4.282908 -0.146349 4.445181
v 4.218711 -0.095443 4.581781
v 4.218711 -0.095443 4.445181
v 4.139963 -0.068356 4.581781
v 4.139963 -0.068356 4.445181
v 4.056161 -0.068356 4.581781
v 4.056161 -0.068356 4.445181
v 3.977413 -0.095443 4.581781
v 3.977413 -0.095443 4.445181
v 3.913216 -0.146349 4.581781
v 3.913216 -0.146349 4.445181
v 3.871315 -0.214936 4.581781
v 3.871315 -0.214935 4.445181
v 3.856763 -0.292929 4.581781
v 3.856763 -0.292929 4.445181
v 3.871315 -0.370922 4.581781
v 3.871315 -0.370922 4.445181
v 3.913216 -0.439508 4.581781
v 3.913216 -0.439508 4.445181
v 3.977413 -0.490415 4.581781
v 3.977413 -0.490415 4.445181
v 4.056161 -0.517501 4.581781
v 4.056161 -0.517501 4.445181
v 4.139963 -0.517501 4.581781
v 4.139963 -0.517501 4.445181
v 4.218711 -0.490415 4.581781
v 4.218711 -0.490415 4.445181
v 4.282908 -0.439508 4.581781
v 4.282908 -0.439508 4.445181
v 4.324809 -0.370922 4.581781
v 4.324809 -0.370922 4.445181
v 4.098062 -0.292929 6.260361
v 4.324809 -0.214936 6.260361
v 4.339361 -0.292929 6.260361
v 4.324809 -0.214936 6.123761
v 4.339361 -0.292929 6.123761
v 4.098062 -0.292929 6.123761
v 4.282908 -0.146350 6.260361
v 4.282908 -0.146350 6.123761
v 4.218712 -0.095443 6.260361
v 4.218712 -0.095443 6.123761
v 4.139963 -0.068356 6.260361
v 4.139963 -0.068356 6.123761
v 4.056161 -0.068356 6.260361
v 4.056161 -0.068356 6.123761
v 3.977413 -0.095443 6.260361
v 3.977413 -0.095443 6.123761
v 3.913217 -0.146350 6.260361
v 3.913217 -0.146350 6.123761
v 3.871316 -0.214936 6.260361
v 3.871316 -0.214936 6.123761
v 3.856764 -0.292929 6.260361
v 3.856763 -0.292929 6.123761
v 3.871316 -0.370922 6.260361
v 3.871316 -0.370922 6.123761
v 3.913217 -0.439508 6.260361
v 3.913217 -0.439508 6.123761
v 3.977413 -0.490415 6.260361
v 3.977413 -0.490415 6.123761
v 4.056161 -0.517502 6.260361
v 4.056161 -0.517502 6.123761
v 4.139963 -0.517502 6.260361
v 4.139963 -0.517502 6.123761
v 4.218712 -0.490415 6.260361
v 4.218712 -0.490415 6.123761
v 4.282908 -0.439508 6.260361
v 4.282908 -0.439508 6.123761
v 4.324809 -0.370922 6.260361
v 4.324809 -0.370922 6.123761
v 2.986475 -1.165019 6.707833
v 2.986475 1.411244 6.707833
v 2.986475 1.411244 4.131570
v 2.986475 -1.165019 4.131570
v 5.562737 1.411244 4.131570
v 5.562737 -1.165019 4.131570
v 5.562737 -0.299868 6.207505
v 5.562737 -1.165019 6.707833
v 5.562737 1.411244 6.707833
v 5.562737 -0.027116 6.207505
vt 0.929503 -0.530972
vt 0.929503 -0.277791
vt 0.821501 -0.277791
vt 0.821501 -0.530972
vt 0.673463 -0.277791
vt 0.673463 -0.530972
vt 0.027499 -0.761385
vt 0.371136 -0.761385
vt 0.371136 -0.720967
vt 0.009525 -0.663153
vt 0.375259 -0.761385
vt 0.375259 -0.720967
vt 0.371136 -0.547378
vt 0.094551 -0.548184
vt 0.375259 -0.718222
vt 0.375259 -0.551555
vt 0.352338 -0.991797
vt 0.695975 -0.991797
vt 0.713949 -0.893565
vt 0.352338 -0.951379
vt 0.628923 -0.778596
vt 0.352338 -0.777791
vt 0.654413 -0.530972
vt 0.654413 -0.277791
vt 0.397303 -0.277791
vt 0.397303 -0.530972
vt 0.391692 -0.277791
vt 0.391692 -0.530972
vt 0.353162 -0.261385
vt 0.353162 -0.008203
vt 0.009525 -0.008203
vt 0.009525 -0.261385
vt 0.836178 -0.041481
vt 0.797161 -0.029924
vt 0.794657 -0.041481
vt 0.933906 -0.111408
vt 0.946659 -0.111408
vt 0.946659 -0.091166
vt 0.933906 -0.091166
vt 0.877699 -0.124444
vt 0.875195 -0.112887
vt 0.836178 -0.124444
vt 0.804371 -0.019760
vt 0.956974 -0.111408
vt 0.956974 -0.091166
vt 0.867985 -0.102723
vt 0.815418 -0.012217
vt 0.937183 -0.715070
vt 0.949535 -0.715070
vt 0.949535 -0.694828
vt 0.937183 -0.694828
vt 0.856938 -0.095179
vt 0.828968 -0.008203
vt 0.963673 -0.715070
vt 0.963673 -0.694828
vt 0.843388 -0.091166
vt 0.843388 -0.008203
vt 0.977891 -0.715070
vt 0.977891 -0.694828
vt 0.828968 -0.091166
vt 0.856938 -0.012217
vt 0.990475 -0.715070
vt 0.990475 -0.694828
vt 0.815418 -0.095179
vt 0.867985 -0.019760
vt 0.896749 -0.148056
vt 0.907349 -0.148056
vt 0.907349 -0.127813
vt 0.896749 -0.127813
vt 0.804371 -0.102723
vt 0.875195 -0.029924
vt 0.920254 -0.148056
vt 0.920254 -0.127813
vt 0.797161 -0.112887
vt 0.877699 -0.041481
vt 0.933906 -0.148056
vt 0.933906 -0.127813
vt 0.794657 -0.124444
vt 0.875195 -0.053039
vt 0.946659 -0.148056
vt 0.946659 -0.127813
vt 0.797161 -0.136002
vt 0.867985 -0.063202
vt 0.956974 -0.148056
vt 0.956974 -0.127813
vt 0.804371 -0.146165
vt 0.856938 -0.070746
vt 0.877684 -0.834681
vt 0.890036 -0.834681
vt 0.890036 -0.814438
vt 0.877684 -0.814438
vt 0.815418 -0.153709
vt 0.843388 -0.074760
vt 0.904173 -0.834681
vt 0.904173 -0.814438
vt 0.828968 -0.157723
vt 0.828968 -0.074760
vt 0.918392 -0.834681
vt 0.918392 -0.814438
vt 0.843388 -0.157723
vt 0.815418 -0.070746
vt 0.930975 -0.834681
vt 0.930975 -0.814438
vt 0.856938 -0.153709
vt 0.804371 -0.063202
vt 0.896749 -0.111408
vt 0.907349 -0.111408
vt 0.907349 -0.091166
vt 0.896749 -0.091166
vt 0.867985 -0.146165
vt 0.797161 -0.053039
vt 0.920254 -0.111408
vt 0.920254 -0.091166
vt 0.875195 -0.136002
vt 0.774520 -0.645144
vt 0.735503 -0.633586
vt 0.732999 -0.645144
vt 0.928707 -0.798033
vt 0.941460 -0.798033
vt 0.941460 -0.777791
vt 0.928707 -0.777791
vt 0.816041 -0.728106
vt 0.813537 -0.716549
vt 0.774520 -0.728106
vt 0.742713 -0.623423
vt 0.951776 -0.798033
vt 0.951776 -0.777791
vt 0.806327 -0.706385
vt 0.753760 -0.615879
vt 0.732999 -0.834681
vt 0.745351 -0.834681
vt 0.745351 -0.814438
vt 0.732999 -0.814438
vt 0.795281 -0.698842
vt 0.767310 -0.611865
vt 0.759489 -0.834681
vt 0.759489 -0.814438
vt 0.781730 -0.694828
vt 0.781730 -0.611865
vt 0.773707 -0.834681
vt 0.773707 -0.814438
vt 0.767310 -0.694828
vt 0.795281 -0.615879
vt 0.786291 -0.834681
vt 0.786291 -0.814438
vt 0.753760 -0.698842
vt 0.806327 -0.623423
vt 0.812275 -0.595459
vt 0.822875 -0.595459
vt 0.822875 -0.575217
vt 0.812275 -0.575217
vt 0.742713 -0.706385
vt 0.813537 -0.633586
vt 0.835779 -0.595459
vt 0.835779 -0.575217
vt 0.735503 -0.716549
vt 0.816041 -0.645144
vt 0.849431 -0.595459
vt 0.849431 -0.575217
vt 0.732999 -0.728106
vt 0.813537 -0.656701
vt 0.862184 -0.595459
vt 0.862184 -0.575217
vt 0.735503 -0.739664
vt 0.806327 -0.666865
vt 0.872500 -0.595459
vt 0.872500 -0.575217
vt 0.742713 -0.749827
vt 0.795281 -0.674408
vt 0.896749 -0.204037
vt 0.909101 -0.204037
vt 0.909101 -0.183795
vt 0.896749 -0.183795
vt 0.753760 -0.757371
vt 0.781730 -0.678422
vt 0.923239 -0.204037
vt 0.923239 -0.183795
vt 0.767310 -0.761385
vt 0.767310 -0.678422
vt 0.937457 -0.204037
vt 0.937457 -0.183795
vt 0.781730 -0.761385
vt 0.753760 -0.674408
vt 0.950041 -0.204037
vt 0.950041 -0.183795
vt 0.795281 -0.757371
vt 0.742713 -0.666865
vt 0.891550 -0.798033
vt 0.902151 -0.798033
vt 0.902151 -0.777791
vt 0.891550 -0.777791
vt 0.806327 -0.749827
vt 0.735503 -0.656701
vt 0.915055 -0.798033
vt 0.915055 -0.777791
vt 0.813537 -0.739664
vt 0.375000 0.000000
vt 0.625000 0.000000
vt 0.625000 0.250000
vt 0.375000 0.250000
vt 0.625000 0.500000
vt 0.375000 0.500000
vt 0.487219 0.535651
vt 0.485422 0.535651
vt 0.458954 0.535651
vt 0.458954 0.701448
vt 0.375000 0.750000
vt 0.625000 0.750000
vt 0.625000 1.000000
vt 0.375000 1.000000
vt 0.125000 0.500000
vt 0.125000 0.750000
vt 0.875000 0.500000
vt 0.875000 0.750000
vt 0.348215 -0.991797
vt 0.348215 -0.951379
vt 0.357285 -0.008203
vt 0.357285 -0.261385
vt 0.348215 -0.781967
vt 0.485422 0.701448
vt 0.596362 0.701448
vt 0.596362 0.535651
vn 0.9878 0.1557 0.0000
vn 0.8435 -0.5372 -0.0000
vn 0.0000 0.0000 1.0000
vn -0.0000 0.0000 -1.0000
vn 0.0034 -1.0000 -0.0000
vn -0.7619 -0.6477 -0.0000
vn 0.0000 1.0000 0.0000
vn -0.9830 -0.1834 -0.0000
vn -0.8534 -0.5213 -0.0000
vn -0.6213 -0.7835 -0.0000
vn -0.3253 -0.9456 -0.0000
vn 0.0000 -1.0000 -0.0000
vn 0.3253 -0.9456 -0.0000
vn 0.6213 -0.7836 -0.0000
vn 0.8534 -0.5213 -0.0000
vn 0.9830 -0.1834 -0.0000
vn 0.9830 0.1834 0.0000
vn 0.8534 0.5213 0.0000
vn 0.6213 0.7835 0.0000
vn 0.3253 0.9456 0.0000
vn -0.3253 0.9456 0.0000
vn -0.6213 0.7835 0.0000
vn -0.8534 0.5213 0.0000
vn -0.9830 0.1834 0.0000
vn 0.6213 -0.7835 -0.0000
vn -1.0000 0.0000 0.0000
vn 1.0000 0.0000 0.0000
usemtl None
s 1
f 1/1/1 2/2/1 3/3/1 4/4/1
f 4/4/2 3/3/2 5/5/2 6/6/2
f 2/7/3 7/8/3 8/9/3 3/10/3
f 7/8/3 9/11/3 10/12/3 8/9/3
f 3/10/3 8/9/3 11/13/3 5/14/3
f 8/9/3 10/12/3 12/15/3 13/16/3 11/13/3
f 14/17/4 1/18/4 4/19/4 15/20/4
f 15/20/4 4/19/4 6/21/4 16/22/4
f 6/23/5 5/24/5 11/25/5 16/26/5
f 16/26/6 11/25/6 13/27/6 17/28/6
f 14/29/7 7/30/7 2/31/7 1/32/7
f 18/33/4 19/34/4 20/35/4
f 20/36/8 19/37/8 21/38/8 22/39/8
f 22/40/3 21/41/3 23/42/3
f 18/33/4 24/43/4 19/34/4
f 19/37/9 24/44/9 25/45/9 21/38/9
f 21/41/3 25/46/3 23/42/3
f 18/33/4 26/47/4 24/43/4
f 24/48/10 26/49/10 27/50/10 25/51/10
f 25/46/3 27/52/3 23/42/3
f 18/33/4 28/53/4 26/47/4
f 26/49/11 28/54/11 29/55/11 27/50/11
f 27/52/3 29/56/3 23/42/3
f 18/33/4 30/57/4 28/53/4
f 28/54/12 30/58/12 31/59/12 29/55/12
f 29/56/3 31/60/3 23/42/3
f 18/33/4 32/61/4 30/57/4
f 30/58/13 32/62/13 33/63/13 31/59/13
f 31/60/3 33/64/3 23/42/3
f 18/33/4 34/65/4 32/61/4
f 32/66/14 34/67/14 35/68/14 33/69/14
f 33/64/3 35/70/3 23/42/3
f 18/33/4 36/71/4 34/65/4
f 34/67/15 36/72/15 37/73/15 35/68/15
f 35/70/3 37/74/3 23/42/3
f 18/33/4 38/75/4 36/71/4
f 36/72/16 38/76/16 39/77/16 37/73/16
f 37/74/3 39/78/3 23/42/3
f 18/33/4 40/79/4 38/75/4
f 38/76/17 40/80/17 41/81/17 39/77/17
f 39/78/3 41/82/3 23/42/3
f 18/33/4 42/83/4 40/79/4
f 40/80/18 42/84/18 43/85/18 41/81/18
f 41/82/3 43/86/3 23/42/3
f 18/33/4 44/87/4 42/83/4
f 42/88/19 44/89/19 45/90/19 43/91/19
f 43/86/3 45/92/3 23/42/3
f 18/33/4 46/93/4 44/87/4
f 44/89/20 46/94/20 47/95/20 45/90/20
f 45/92/3 47/96/3 23/42/3
f 18/33/4 48/97/4 46/93/4
f 46/94/7 48/98/7 49/99/7 47/95/7
f 47/96/3 49/100/3 23/42/3
f 18/33/4 50/101/4 48/97/4
f 48/98/21 50/102/21 51/103/21 49/99/21
f 49/100/3 51/104/3 23/42/3
f 18/33/4 52/105/4 50/101/4
f 50/106/22 52/107/22 53/108/22 51/109/22
f 51/104/3 53/110/3 23/42/3
f 18/33/4 54/111/4 52/105/4
f 52/107/23 54/112/23 55/113/23 53/108/23
f 53/110/3 55/114/3 23/42/3
f 18/33/4 20/35/4 54/111/4
f 54/112/24 20/36/24 22/39/24 55/113/24
f 55/114/3 22/40/3 23/42/3
f 56/115/4 57/116/4 58/117/4
f 58/118/8 57/119/8 59/120/8 60/121/8
f 60/122/3 59/123/3 61/124/3
f 56/115/4 62/125/4 57/116/4
f 57/119/9 62/126/9 63/127/9 59/120/9
f 59/123/3 63/128/3 61/124/3
f 56/115/4 64/129/4 62/125/4
f 62/130/10 64/131/10 65/132/10 63/133/10
f 63/128/3 65/134/3 61/124/3
f 56/115/4 66/135/4 64/129/4
f 64/131/11 66/136/11 67/137/11 65/132/11
f 65/134/3 67/138/3 61/124/3
f 56/115/4 68/139/4 66/135/4
f 66/136/12 68/140/12 69/141/12 67/137/12
f 67/138/3 69/142/3 61/124/3
f 56/115/4 70/143/4 68/139/4
f 68/140/13 70/144/13 71/145/13 69/141/13
f 69/142/3 71/146/3 61/124/3
f 56/115/4 72/147/4 70/143/4
f 70/148/25 72/149/25 73/150/25 71/151/25
f 71/146/3 73/152/3 61/124/3
f 56/115/4 74/153/4 72/147/4
f 72/149/15 74/154/15 75/155/15 73/150/15
f 73/152/3 75/156/3 61/124/3
f 56/115/4 76/157/4 74/153/4
f 74/154/16 76/158/16 77/159/16 75/155/16
f 75/156/3 77/160/3 61/124/3
f 56/115/4 78/161/4 76/157/4
f 76/158/17 78/162/17 79/163/17 77/159/17
f 77/160/3 79/164/3 61/124/3
f 56/115/4 80/165/4 78/161/4
f 78/162/18 80/166/18 81/167/18 79/163/18
f 79/164/3 81/168/3 61/124/3
f 56/115/4 82/169/4 80/165/4
f 80/170/19 82/171/19 83/172/19 81/173/19
f 81/168/3 83/174/3 61/124/3
f 56/115/4 84/175/4 82/169/4
f 82/171/20 84/176/20 85/177/20 83/172/20
f 83/174/3 85/178/3 61/124/3
f 56/115/4 86/179/4 84/175/4
f 84/176/7 86/180/7 87/181/7 85/177/7
f 85/178/3 87/182/3 61/124/3
f 56/115/4 88/183/4 86/179/4
f 86/180/21 88/184/21 89/185/21 87/181/21
f 87/182/3 89/186/3 61/124/3
f 56/115/4 90/187/4 88/183/4
f 88/188/22 90/189/22 91/190/22 89/191/22
f 89/186/3 91/192/3 61/124/3
f 56/115/4 92/193/4 90/187/4
f 90/189/23 92/194/23 93/195/23 91/190/23
f 91/192/3 93/196/3 61/124/3
f 56/115/4 58/117/4 92/193/4
f 92/194/24 58/118/24 60/121/24 93/195/24
f 93/196/3 60/122/3 61/124/3
f 94/197/26 95/198/26 96/199/26 97/200/26
f 97/200/4 96/199/4 98/201/4 99/202/4
f 99/202/27 12/203/27 10/204/27 9/205/27 100/206/27 101/207/27
f 101/207/3 102/208/3 95/209/3 94/210/3
f 97/211/12 99/202/12 101/207/12 94/212/12
f 98/201/7 96/213/7 95/214/7 102/208/7
f 100/215/4 14/17/4 15/20/4 103/216/4
f 9/217/7 7/30/7 14/29/7 100/218/7
f 103/216/4 15/20/4 16/22/4 17/219/4
f 101/207/27 100/206/27 103/220/27 17/221/27 13/222/27 12/203/27 99/202/27 98/201/27 102/208/27
