# Blender v2.82 (sub 7) OBJ File: 'wallTest.blend'
# www.blender.org
mtllib coneContainer.mtl
o Cube_Cube.004
v -14.481103 4.830750 -3.991178
v -14.286013 4.830750 -3.971963
v -14.098419 4.830750 -3.915057
v -13.925532 4.830750 -3.822648
v -13.773995 4.830750 -3.698285
v -13.649632 4.830750 -3.546748
v -13.557223 4.830750 -3.373862
v -13.500318 4.830750 -3.186268
v -13.481103 4.830750 -2.991178
v -13.500318 4.830750 -2.796088
v -13.557223 4.830750 -2.608495
v -13.649632 4.830750 -2.435608
v -13.773995 4.830750 -2.284071
v -13.925532 4.830750 -2.159708
v -14.098419 4.830750 -2.067298
v -14.286013 4.830750 -2.010393
v -14.481103 4.830750 -1.991178
v -14.481103 6.830750 -2.991178
v -14.513461 4.450271 -1.687480
v -14.513461 7.048726 -1.687480
v -14.513461 4.450271 -4.285936
v -14.513461 7.048726 -4.285936
v -11.915006 4.450271 -1.687480
v -11.915006 7.048726 -1.687480
v -11.915006 4.450271 -4.285936
v -11.915006 7.048726 -4.285936
v -14.513461 6.499016 -3.153858
v -14.513461 4.830750 -3.987991
v -14.513461 6.764765 -2.984741
v -14.513461 6.766033 -2.991178
v -14.513461 6.714262 -2.942750
v -14.513461 6.739226 -2.958819
v -14.513461 6.499020 -2.828500
v -14.513461 4.830750 -1.994365
v -14.513461 6.760700 -2.977775
v -14.513461 6.661635 -2.913057
v -14.513461 6.752915 -2.969557
v -14.513461 6.739226 -3.023537
v -14.513461 6.714262 -3.039607
v -14.513461 6.752915 -3.012800
v -14.513461 6.764765 -2.997615
v -14.513461 6.661634 -3.069299
v -14.513461 6.760701 -3.004581
vt 0.250000 0.490000
vt 0.296822 0.485388
vt 0.250000 0.250000
vt 0.341844 0.471731
vt 0.383337 0.449553
vt 0.419706 0.419706
vt 0.449553 0.383337
vt 0.471731 0.341844
vt 0.485388 0.296822
vt 0.490000 0.250000
vt 0.485388 0.203178
vt 0.471731 0.158156
vt 0.449553 0.116663
vt 0.419706 0.080294
vt 0.383337 0.050447
vt 0.341844 0.028269
vt 0.296822 0.014612
vt 0.250000 0.010000
vt 0.242234 0.010765
vt 0.242234 0.210957
vt 0.750000 0.490000
vt 0.742234 0.489235
vt 0.742234 0.010765
vt 0.750000 0.010000
vt 0.796822 0.014612
vt 0.841844 0.028269
vt 0.883337 0.050447
vt 0.919706 0.080294
vt 0.949553 0.116663
vt 0.971731 0.158156
vt 0.985388 0.203178
vt 0.990000 0.250000
vt 0.985388 0.296822
vt 0.971731 0.341844
vt 0.949553 0.383337
vt 0.919706 0.419706
vt 0.883337 0.449553
vt 0.841844 0.471731
vt 0.796822 0.485388
vt 0.375000 0.000000
vt 0.625000 0.000000
vt 0.625000 0.250000
vt 0.375000 0.250000
vt 0.411606 0.221334
vt 0.572112 0.141082
vt 0.587758 0.132946
vt 0.592821 0.130089
vt 0.595223 0.128543
vt 0.596540 0.127510
vt 0.597289 0.126720
vt 0.597680 0.126049
vt 0.597802 0.125430
vt 0.597680 0.124811
vt 0.597289 0.124140
vt 0.596540 0.123350
vt 0.595223 0.122317
vt 0.592821 0.120771
vt 0.587758 0.117914
vt 0.572112 0.109779
vt 0.411606 0.029526
vt 0.625000 0.500000
vt 0.375000 0.500000
vt 0.625000 0.750000
vt 0.375000 0.750000
vt 0.625000 1.000000
vt 0.375000 1.000000
vt 0.125000 0.500000
vt 0.125000 0.750000
vt 0.875000 0.500000
vt 0.875000 0.750000
vt 0.242234 0.244811
vt 0.242234 0.242234
vt 0.242234 0.261623
vt 0.242234 0.257766
vt 0.242234 0.289043
vt 0.242234 0.268749
vt 0.242234 0.251545
vt 0.242234 0.250000
vt 0.242234 0.231251
vt 0.242234 0.253217
vt 0.242234 0.255189
vt 0.242234 0.248455
vt 0.242234 0.246783
vt 0.242234 0.238377
vt 0.242234 0.489235
vn -0.0878 -0.4455 0.8910
vn -0.2599 -0.4455 0.8567
vn -0.4220 -0.4455 0.7896
vn -0.5680 -0.4455 0.6921
vn -0.6921 -0.4455 0.5680
vn -0.7896 -0.4455 0.4220
vn -0.8567 -0.4455 0.2599
vn -0.8910 -0.4455 0.0878
vn -0.8910 -0.4455 -0.0878
vn -0.8567 -0.4455 -0.2599
vn -0.7896 -0.4455 -0.4220
vn -0.6921 -0.4455 -0.5680
vn -0.5680 -0.4455 -0.6921
vn -0.4220 -0.4455 -0.7896
vn -0.2599 -0.4455 -0.8567
vn -0.0878 -0.4455 -0.8910
vn 0.0878 -0.4455 -0.8910
vn 0.0000 1.0000 0.0000
vn -1.0000 -0.0000 0.0000
vn 0.0000 0.0000 -1.0000
vn 1.0000 0.0000 0.0000
vn 0.0000 0.0000 1.0000
vn 0.0000 -1.0000 0.0000
vn 0.6920 -0.4455 -0.5680
vn 0.5680 -0.4454 0.6921
vn 0.2599 -0.4455 0.8567
vn 0.8910 -0.4455 0.0877
vn 0.2599 -0.4455 -0.8567
vn 0.8568 -0.4455 0.2598
vn 0.6921 -0.4455 0.5679
vn 0.4220 -0.4455 0.7896
vn 0.8567 -0.4455 -0.2599
vn 0.5680 -0.4455 -0.6920
vn 0.4220 -0.4455 -0.7896
vn 0.7896 -0.4455 -0.4220
vn 0.7896 -0.4455 0.4220
vn 0.0878 -0.4455 0.8910
vn 0.8910 -0.4455 -0.0877
usemtl None
s off
f 1/1/1 2/2/1 18/3/1
f 2/2/2 3/4/2 18/3/2
f 3/4/3 4/5/3 18/3/3
f 4/5/4 5/6/4 18/3/4
f 5/6/5 6/7/5 18/3/5
f 6/7/6 7/8/6 18/3/6
f 7/8/7 8/9/7 18/3/7
f 8/9/8 9/10/8 18/3/8
f 9/10/9 10/11/9 18/3/9
f 10/11/10 11/12/10 18/3/10
f 11/12/11 12/13/11 18/3/11
f 12/13/12 13/14/12 18/3/12
f 13/14/13 14/15/13 18/3/13
f 14/15/14 15/16/14 18/3/14
f 15/16/15 16/17/15 18/3/15
f 16/17/16 17/18/16 18/3/16
f 17/18/17 34/19/17 33/20/17 18/3/17
f 1/21/18 28/22/18 34/23/18 17/24/18 16/25/18 15/26/18 14/27/18 13/28/18 12/29/18 11/30/18 10/31/18 9/32/18 8/33/18 7/34/18 6/35/18 5/36/18 4/37/18 3/38/18 2/39/18
f 19/40/19 20/41/19 22/42/19 21/43/19 28/44/19 27/45/19 42/46/19 39/47/19 38/48/19 40/49/19 43/50/19 41/51/19 30/52/19 29/53/19 35/54/19 37/55/19 32/56/19 31/57/19 36/58/19 33/59/19 34/60/19
f 21/43/20 22/42/20 26/61/20 25/62/20
f 25/62/21 26/61/21 24/63/21 23/64/21
f 23/64/22 24/63/22 20/65/22 19/66/22
f 21/67/23 25/62/23 23/64/23 19/68/23
f 26/61/18 22/69/18 20/70/18 24/63/18
f 37/71/24 18/3/24 32/72/24
f 39/73/25 18/3/25 38/74/25
f 27/75/26 18/3/26 42/76/26
f 41/77/27 18/3/27 30/78/27
f 36/79/28 18/3/28 33/20/28
f 43/80/29 18/3/29 41/77/29
f 38/74/30 18/3/30 40/81/30
f 42/76/31 18/3/31 39/73/31
f 29/82/32 18/3/32 35/83/32
f 32/72/33 18/3/33 31/84/33
f 34/60/19 28/44/19 21/43/19 19/40/19
f 31/84/34 18/3/34 36/79/34
f 35/83/35 18/3/35 37/71/35
f 40/81/36 18/3/36 43/80/36
f 28/85/37 1/1/37 18/3/37 27/75/37
f 30/78/38 18/3/38 29/82/38
