# Blender v2.82 (sub 7) OBJ File: 'wallTest.blend'
# www.blender.org
mtllib cubeContainer1.mtl
o Cube_Cube.002
v -12.573032 4.749498 -2.531688
v -12.573032 6.749498 -2.531688
v -12.573032 4.749498 -4.531688
v -12.573032 6.749498 -4.531688
v -10.573032 4.749498 -2.531688
v -10.573032 6.749498 -2.531688
v -10.573032 4.749498 -4.531688
v -10.573032 6.749498 -4.531688
vt 0.375000 0.000000
vt 0.625000 0.000000
vt 0.625000 0.250000
vt 0.375000 0.250000
vt 0.625000 0.500000
vt 0.375000 0.500000
vt 0.625000 0.750000
vt 0.375000 0.750000
vt 0.625000 1.000000
vt 0.375000 1.000000
vt 0.125000 0.500000
vt 0.125000 0.750000
vt 0.875000 0.500000
vt 0.875000 0.750000
vn -1.0000 0.0000 0.0000
vn 0.0000 0.0000 -1.0000
vn 1.0000 0.0000 0.0000
vn 0.0000 0.0000 1.0000
vn 0.0000 -1.0000 0.0000
vn 0.0000 1.0000 0.0000
usemtl None
s off
f 1/1/1 2/2/1 4/3/1 3/4/1
f 3/4/2 4/3/2 8/5/2 7/6/2
f 7/6/3 8/5/3 6/7/3 5/8/3
f 5/8/4 6/7/4 2/9/4 1/10/4
f 3/11/5 7/6/5 5/8/5 1/12/5
f 8/5/6 4/13/6 2/14/6 6/7/6
o Cube.001_Cube.003
v -10.573032 4.749498 -2.531688
v -10.573032 6.749498 -2.531688
v -10.573032 4.749498 -4.531688
v -10.573032 6.749498 -4.531688
v -12.089597 4.274989 -2.057178
v -12.089597 7.224008 -2.057178
v -12.089597 4.274989 -5.006197
v -12.089597 7.224008 -5.006197
v -9.140578 4.274989 -2.057178
v -9.140578 7.224008 -2.057178
v -9.140578 4.274989 -5.006197
v -9.140578 7.224008 -5.006197
v -12.089597 4.749498 -4.531688
v -12.089597 6.749498 -4.531688
v -12.089597 6.749498 -2.531688
v -12.089597 4.749498 -2.531688
vt 0.375000 0.500000
vt 0.375000 0.750000
vt 0.625000 0.750000
vt 0.625000 0.500000
vt 0.375000 0.939571
vt 0.625000 0.939571
vt 0.814571 0.750000
vt 0.814571 0.500000
vt 0.375000 0.000000
vt 0.625000 0.000000
vt 0.584774 0.040226
vt 0.415226 0.040226
vt 0.415226 0.209774
vt 0.375000 0.250000
vt 0.625000 0.250000
vt 0.625000 0.500000
vt 0.375000 0.500000
vt 0.625000 0.750000
vt 0.375000 0.750000
vt 0.625000 1.000000
vt 0.375000 1.000000
vt 0.125000 0.500000
vt 0.125000 0.750000
vt 0.875000 0.500000
vt 0.875000 0.750000
vt 0.375000 0.310429
vt 0.625000 0.310429
vt 0.584774 0.209774
vt 0.185429 0.750000
vt 0.185429 0.500000
vn -1.0000 0.0000 0.0000
vn 0.0000 0.0000 -1.0000
vn 0.0000 -1.0000 0.0000
vn 1.0000 0.0000 0.0000
vn 0.0000 0.0000 1.0000
vn 0.0000 1.0000 0.0000
usemtl None
s off
f 11/15/7 9/16/7 10/17/7 12/18/7
f 9/16/8 24/19/8 23/20/8 10/17/8
f 12/18/9 10/17/9 23/21/9 22/22/9
f 13/23/7 14/24/7 23/25/7 24/26/7 21/27/7 15/28/7
f 15/28/8 16/29/8 20/30/8 19/31/8
f 19/31/10 20/30/10 18/32/10 17/33/10
f 17/33/11 18/32/11 14/34/11 13/35/11
f 15/36/9 19/31/9 17/33/9 13/37/9
f 20/30/12 16/38/12 14/39/12 18/32/12
f 21/40/11 11/15/11 12/18/11 22/41/11
f 15/28/7 21/27/7 22/42/7 23/25/7 14/24/7 16/29/7
f 24/43/12 9/16/12 11/15/12 21/44/12
