# Blender v2.82 (sub 7) OBJ File: 'wallTest.blend'
# www.blender.org
mtllib cylinderContainer.mtl
o Cube_Cube.005
v -7.767703 3.774023 -3.872634
v -7.767703 7.956333 -3.872634
v -7.493124 3.774023 -3.792467
v -7.493124 7.956333 -3.792467
v -7.240070 3.774023 -3.662282
v -7.240070 7.956333 -3.662282
v -7.018268 3.774023 -3.487084
v -7.018268 7.956333 -3.487084
v -6.836238 3.774023 -3.273603
v -6.836238 7.956333 -3.273603
v -6.700978 3.774023 -3.030046
v -6.700978 7.956333 -3.030046
v -6.617686 3.774023 -2.765770
v -6.617686 7.956333 -2.765770
v -6.589561 3.774023 -2.490932
v -6.589561 7.956333 -2.490932
v -6.617686 3.774023 -2.216095
v -6.617686 7.956333 -2.216095
v -6.700978 3.774023 -1.951819
v -6.700978 7.956333 -1.951819
v -6.836238 3.774023 -1.708261
v -6.836238 7.956333 -1.708261
v -7.018268 3.774023 -1.494781
v -7.018268 7.956333 -1.494781
v -7.240070 3.774023 -1.319582
v -7.240070 7.956333 -1.319582
v -7.493124 3.774023 -1.189398
v -7.493124 7.956333 -1.189398
v -7.767703 3.774023 -1.109231
v -7.767703 7.956333 -1.109231
v -8.011241 2.445180 0.602089
v -8.011241 8.643183 0.602089
v -8.011241 2.445180 -5.595913
v -8.011241 8.643183 -5.595913
v -3.806520 2.445180 0.602089
v -3.806520 8.643183 0.602089
v -3.806520 2.445180 -5.595913
v -3.806520 8.643183 -5.595913
v -8.011241 7.956333 -3.895720
v -8.011241 3.774023 -1.086145
v -8.011241 3.774023 -3.895720
v -8.011241 7.956333 -1.086145
vt 0.968750 0.500000
vt 0.937500 0.500000
vt 0.937500 1.000000
vt 0.968750 1.000000
vt 0.906250 0.500000
vt 0.906250 1.000000
vt 0.875000 0.500000
vt 0.875000 1.000000
vt 0.843750 0.500000
vt 0.843750 1.000000
vt 0.812500 0.500000
vt 0.812500 1.000000
vt 0.781250 0.500000
vt 0.781250 1.000000
vt 0.750000 0.500000
vt 0.750000 1.000000
vt 0.718750 0.500000
vt 0.718750 1.000000
vt 0.687500 0.500000
vt 0.687500 1.000000
vt 0.656250 0.500000
vt 0.656250 1.000000
vt 0.625000 0.500000
vt 0.625000 1.000000
vt 0.593750 0.500000
vt 0.593750 1.000000
vt 0.562500 0.500000
vt 0.562500 1.000000
vt 0.531250 0.500000
vt 0.531250 1.000000
vt 0.504598 0.500000
vt 0.504598 1.000000
vt 0.296822 0.485388
vt 0.341844 0.471731
vt 0.383337 0.449553
vt 0.419706 0.419706
vt 0.449553 0.383337
vt 0.471731 0.341844
vt 0.485388 0.296822
vt 0.490000 0.250000
vt 0.485388 0.203178
vt 0.471731 0.158156
vt 0.449553 0.116663
vt 0.419706 0.080294
vt 0.383337 0.050447
vt 0.341844 0.028269
vt 0.296822 0.014612
vt 0.256889 0.010679
vt 0.256889 0.489321
vt 0.375000 0.000000
vt 0.625000 0.000000
vt 0.597296 0.068096
vt 0.428600 0.068096
vt 0.428600 0.181422
vt 0.375000 0.250000
vt 0.625000 0.250000
vt 0.625000 0.500000
vt 0.375000 0.500000
vt 0.625000 0.750000
vt 0.375000 0.750000
vt 0.625000 1.000000
vt 0.375000 1.000000
vt 0.125000 0.500000
vt 0.125000 0.750000
vt 0.875000 0.500000
vt 0.875000 0.750000
vt 0.995402 0.500000
vt 0.995402 1.000000
vt 0.756889 0.010679
vt 0.796822 0.014612
vt 0.841844 0.028269
vt 0.883337 0.050447
vt 0.919706 0.080294
vt 0.949553 0.116663
vt 0.971731 0.158156
vt 0.985388 0.203178
vt 0.990000 0.250000
vt 0.985388 0.296822
vt 0.971731 0.341844
vt 0.949553 0.383337
vt 0.919706 0.419706
vt 0.883337 0.449553
vt 0.841844 0.471731
vt 0.796822 0.485388
vt 0.756889 0.489322
vt 0.597296 0.181422
vn -0.2803 0.0000 0.9599
vn -0.4575 0.0000 0.8892
vn -0.6198 0.0000 0.7847
vn -0.7609 0.0000 0.6488
vn -0.8742 0.0000 0.4855
vn -0.9538 0.0000 0.3006
vn -0.9948 0.0000 0.1018
vn -0.9948 0.0000 -0.1018
vn -0.9538 0.0000 -0.3006
vn -0.8742 0.0000 -0.4855
vn -0.7609 0.0000 -0.6488
vn -0.6198 0.0000 -0.7847
vn -0.4575 0.0000 -0.8892
vn -0.2803 0.0000 -0.9599
vn -0.0944 0.0000 -0.9955
vn 0.0000 -1.0000 -0.0000
vn -1.0000 0.0000 0.0000
vn 0.0000 0.0000 -1.0000
vn 1.0000 0.0000 0.0000
vn 0.0000 0.0000 1.0000
vn 0.0000 1.0000 0.0000
vn -0.0944 0.0000 0.9955
usemtl None
s off
f 1/1/1 3/2/1 4/3/1 2/4/1
f 3/2/2 5/5/2 6/6/2 4/3/2
f 5/5/3 7/7/3 8/8/3 6/6/3
f 7/7/4 9/9/4 10/10/4 8/8/4
f 9/9/5 11/11/5 12/12/5 10/10/5
f 11/11/6 13/13/6 14/14/6 12/12/6
f 13/13/7 15/15/7 16/16/7 14/14/7
f 15/15/8 17/17/8 18/18/8 16/16/8
f 17/17/9 19/19/9 20/20/9 18/18/9
f 19/19/10 21/21/10 22/22/10 20/20/10
f 21/21/11 23/23/11 24/24/11 22/22/11
f 23/23/12 25/25/12 26/26/12 24/24/12
f 25/25/13 27/27/13 28/28/13 26/26/13
f 27/27/14 29/29/14 30/30/14 28/28/14
f 29/29/15 40/31/15 42/32/15 30/30/15
f 2/33/16 4/34/16 6/35/16 8/36/16 10/37/16 12/38/16 14/39/16 16/40/16 18/41/16 20/42/16 22/43/16 24/44/16 26/45/16 28/46/16 30/47/16 42/48/16 39/49/16
f 31/50/17 32/51/17 42/52/17 40/53/17 41/54/17 33/55/17
f 33/55/18 34/56/18 38/57/18 37/58/18
f 37/58/19 38/57/19 36/59/19 35/60/19
f 35/60/20 36/59/20 32/61/20 31/62/20
f 33/63/16 37/58/16 35/60/16 31/64/16
f 38/57/21 34/65/21 32/66/21 36/59/21
f 41/67/22 1/1/22 2/4/22 39/68/22
f 40/69/21 29/70/21 27/71/21 25/72/21 23/73/21 21/74/21 19/75/21 17/76/21 15/77/21 13/78/21 11/79/21 9/80/21 7/81/21 5/82/21 3/83/21 1/84/21 41/85/21
f 33/55/17 41/54/17 39/86/17 42/52/17 32/51/17 34/56/17
